<?xml version="1.0" encoding="utf-8"?>
<!-- Generator: Adobe Illustrator 26.2.1, SVG Export Plug-In . SVG Version: 6.00 Build 0)  -->
<svg version="1.1" xmlns="http://www.w3.org/2000/svg" xmlns:xlink="http://www.w3.org/1999/xlink" x="0px" y="0px"
	 viewBox="0 0 1074.33 996.68" style="enable-background:new 0 0 1074.33 996.68;" xml:space="preserve">
<style type="text/css">
	.st0{fill:#FFFFFF;}
</style>
<g id="fond_blanc">
	<g>
		<g>
			<polygon points="296.2,842.53 343.97,842.53 343.97,910.91 362.76,910.91 362.76,842.53 410.52,842.53 410.52,826.61 
				296.2,826.61 			"/>
			<rect x="255.88" y="826.61" width="18.8" height="84.3"/>
			<path d="M919.16,827h-68.77v84.17h18.8v-68.26h45.54c17.74,0,28.84,6.53,28.84,26.36v41.89h18.8v-44.24
				C962.36,844.49,949.44,827,919.16,827"/>
			<path d="M783.04,816.55h27.66c3.14,0,5.87-2.74,5.87-6.01c0-3.39-2.74-6.13-5.87-6.13h-27.66c-3.39,0-6.14,2.74-6.14,6.13
				C776.9,813.82,779.65,816.55,783.04,816.55"/>
			<path d="M513.1,877.86c26.02-0.61,34.57-7.55,34.57-25.28c0-16.06-11.48-25.58-30.92-25.58h-84.69v84.17h18.79v-68.26h66.03
				c7.44,0,11.36,3.37,11.36,10.05c0,5.87-1.86,11.56-13.97,11.19h-47.49v4.86l57.94,41.89h27.27l-48.17-33.05H513.1z"/>
			<path d="M650.88,825.21c-5.72-0.23-11.56-0.36-17.37-0.36c-9.89,0-16.3,0.36-16.36,0.36h-0.32c-13.67,0.44-25.32,5-33.68,13.18
				c-8.02,7.85-12.43,18.72-12.43,30.64v0.12c0,25.57,18.58,43.18,46.24,43.82c5.73,0.25,11.57,0.36,17.38,0.36
				c9.88,0,16.3-0.35,16.36-0.36h0.31c13.67-0.44,25.32-5,33.69-13.18c8.02-7.83,12.43-18.72,12.43-30.64v-0.12
				C697.13,843.97,678.54,826.36,650.88,825.21 M677.09,868.87c-0.06,16.23-10.62,26.76-27.56,27.47h-0.38l-0.36,0.02
				c-1.03,0.08-5.01,0.36-13.6,0.36c-5.74,0-11.25-0.12-16.36-0.37l-0.3-0.01c-17.13-0.44-27.77-10.97-27.77-27.48
				c0-16.33,10.56-26.91,27.56-27.62h0.38l0.35-0.01c0.06-0.01,7.13-0.36,16.82-0.36c5.45,0,7.78,0.11,12.42,0.33l0.73,0.03
				c17.58,0.82,28.07,11.09,28.07,27.5V868.87z"/>
			<polygon points="721.57,911.18 824.14,911.18 824.14,895.25 740.36,895.25 740.36,876.33 813.83,876.33 813.83,861.08 
				740.36,861.08 740.36,842.92 824.14,842.92 824.14,827 721.57,827 			"/>
			<path d="M735.02,816.55h27.53c3.27,0,6.01-2.74,6.01-6.01c0-3.39-2.74-6.13-6.01-6.13h-27.53c-3.39,0-6.14,2.74-6.14,6.13
				C728.88,813.82,731.62,816.55,735.02,816.55"/>
			<path d="M157.46,827.27h-0.29c-13.4,0.42-24.83,4.74-33.04,12.5c-7.86,7.45-12.18,17.77-12.18,29.08v0.12
				c0,24.26,18.22,40.97,45.33,41.59c7.63,0.32,30.64,0.35,40.19,0.35c12.34,0,24.12-0.05,27.61-0.12v-16.1
				c-5.25,0.06-45.21,0.12-49.92,0.12c-5.57,0-11.16-0.11-16.19-0.34c-16.62-0.4-27.38-10.41-27.38-25.5
				c0-15.1,10.61-25.26,27.03-25.89h0.37l0.35-0.02c0.06,0,6.95-0.33,16.48-0.33c2.66,0,43.7,0.05,49.27,0.14v-15.82
				c-3.7-0.08-9.47-0.13-17.17-0.13C186.8,826.92,157.75,827.26,157.46,827.27"/>
		</g>
		<path d="M537.16,84.17c-139.42,0-252.85,140.77-252.85,313.79s113.43,313.79,252.85,313.79s252.85-140.77,252.85-313.79
			S676.59,84.17,537.16,84.17z M330.91,506.57l-0.24-0.73c-8.38-25.91-10.87-48.61-10.89-48.84l-0.03-0.32l0.26-0.19l217.15-160.58
			l217.42,160.77l-0.03,0.32c-0.03,0.23-2.51,22.93-10.89,48.84l-0.24,0.73l-0.62-0.46l-0.01,0.03L537.15,353.63L330.92,506.59
			L330.91,506.57z M537.16,682.14c-72.42,0-140.22-44.85-182.18-120.21l-0.5-0.97l182.67-135.08l182.7,135.1l-0.48,0.87
			c0,0,0.01,0.01,0.01,0.01C677.43,637.26,609.63,682.14,537.16,682.14z M537.16,222.44L314.12,387.88l0.03-1.14
			c2.25-73.39,26.46-142.02,68.15-193.24c41.85-51.4,96.84-79.71,154.86-79.71c58.02,0,113.01,28.31,154.86,79.71
			c41.7,51.22,65.9,119.85,68.15,193.24l0.03,1.14l-0.92-0.68L537.16,222.44z"/>
	</g>
</g>
<g id="fond_noir">
	<g>
		<g>
			<polygon class="st0" points="296.2,1976.39 343.97,1976.39 343.97,2044.77 362.76,2044.77 362.76,1976.39 410.52,1976.39 
				410.52,1960.46 296.2,1960.46 			"/>
			<rect x="255.88" y="1960.46" class="st0" width="18.8" height="84.3"/>
			<path class="st0" d="M919.16,1960.86h-68.77v84.17h18.8v-68.26h45.54c17.74,0,28.84,6.53,28.84,26.36v41.89h18.8v-44.24
				C962.36,1978.35,949.44,1960.86,919.16,1960.86"/>
			<path class="st0" d="M783.04,1950.41h27.66c3.14,0,5.87-2.74,5.87-6.01c0-3.39-2.74-6.13-5.87-6.13h-27.66
				c-3.39,0-6.14,2.74-6.14,6.13C776.9,1947.68,779.65,1950.41,783.04,1950.41"/>
			<path class="st0" d="M513.1,2011.72c26.02-0.61,34.57-7.55,34.57-25.28c0-16.06-11.48-25.58-30.92-25.58h-84.69v84.17h18.79
				v-68.26h66.03c7.44,0,11.36,3.37,11.36,10.05c0,5.87-1.86,11.56-13.97,11.19h-47.49v4.86l57.94,41.89h27.27l-48.17-33.05H513.1z"
				/>
			<path class="st0" d="M650.88,1959.07c-5.72-0.23-11.56-0.36-17.37-0.36c-9.89,0-16.3,0.36-16.36,0.36h-0.32
				c-13.67,0.44-25.32,4.99-33.68,13.18c-8.02,7.85-12.43,18.72-12.43,30.64v0.12c0,25.57,18.58,43.18,46.24,43.82
				c5.73,0.25,11.57,0.36,17.38,0.36c9.88,0,16.3-0.35,16.36-0.36h0.31c13.67-0.44,25.32-5,33.69-13.18
				c8.02-7.83,12.43-18.72,12.43-30.64v-0.12C697.13,1977.83,678.54,1960.22,650.88,1959.07 M677.09,2002.72
				c-0.06,16.23-10.62,26.76-27.56,27.47h-0.38l-0.36,0.02c-1.03,0.08-5.01,0.36-13.6,0.36c-5.74,0-11.25-0.12-16.36-0.37l-0.3-0.01
				c-17.13-0.44-27.77-10.97-27.77-27.48c0-16.33,10.56-26.91,27.56-27.62h0.38l0.35-0.01c0.06-0.01,7.13-0.36,16.82-0.36
				c5.45,0,7.78,0.11,12.42,0.33l0.73,0.03c17.58,0.82,28.07,11.09,28.07,27.5V2002.72z"/>
			<polygon class="st0" points="721.57,2045.03 824.14,2045.03 824.14,2029.11 740.36,2029.11 740.36,2010.19 813.83,2010.19 
				813.83,1994.94 740.36,1994.94 740.36,1976.78 824.14,1976.78 824.14,1960.86 721.57,1960.86 			"/>
			<path class="st0" d="M735.02,1950.41h27.53c3.27,0,6.01-2.74,6.01-6.01c0-3.39-2.74-6.13-6.01-6.13h-27.53
				c-3.39,0-6.14,2.74-6.14,6.13C728.88,1947.68,731.62,1950.41,735.02,1950.41"/>
			<path class="st0" d="M157.46,1961.13h-0.29c-13.4,0.42-24.83,4.74-33.04,12.5c-7.86,7.45-12.18,17.77-12.18,29.08v0.12
				c0,24.26,18.22,40.97,45.33,41.58c7.63,0.32,30.64,0.35,40.19,0.35c12.34,0,24.12-0.05,27.61-0.12v-16.1
				c-5.25,0.06-45.21,0.12-49.92,0.12c-5.57,0-11.16-0.11-16.19-0.34c-16.62-0.4-27.38-10.41-27.38-25.5
				c0-15.1,10.61-25.26,27.03-25.89h0.37l0.35-0.02c0.06,0,6.95-0.33,16.48-0.33c2.66,0,43.7,0.05,49.27,0.14v-15.82
				c-3.7-0.08-9.47-0.13-17.17-0.13C186.8,1960.78,157.75,1961.12,157.46,1961.13"/>
		</g>
		<path class="st0" d="M537.16,1218.03c-139.42,0-252.85,140.77-252.85,313.79c0,173.03,113.43,313.79,252.85,313.79
			s252.85-140.77,252.85-313.79C790.02,1358.8,676.59,1218.03,537.16,1218.03z M330.91,1640.43l-0.24-0.73
			c-8.38-25.91-10.87-48.61-10.89-48.84l-0.03-0.31l0.26-0.19l217.15-160.58l217.42,160.77l-0.03,0.31
			c-0.03,0.23-2.51,22.93-10.89,48.84l-0.24,0.73l-0.62-0.46l-0.01,0.03l-205.63-152.51l-206.22,152.97L330.91,1640.43z
			 M537.16,1816c-72.42,0-140.22-44.85-182.18-120.21l-0.5-0.97l182.67-135.08l182.7,135.1l-0.48,0.87c0,0,0.01,0.01,0.01,0.01
			C677.43,1771.12,609.63,1816,537.16,1816z M537.16,1356.3l-223.04,165.44l0.03-1.14c2.25-73.39,26.46-142.02,68.15-193.24
			c41.85-51.4,96.84-79.71,154.86-79.71c58.02,0,113.01,28.31,154.86,79.71c41.7,51.22,65.9,119.85,68.15,193.24l0.03,1.14
			l-0.92-0.68L537.16,1356.3z"/>
	</g>
</g>
</svg>
