<?xml version="1.0" encoding="UTF-8"?>
<svg width="40px" height="40px" viewBox="0 0 40 40" version="1.1" xmlns="http://www.w3.org/2000/svg" xmlns:xlink="http://www.w3.org/1999/xlink">
    <title>编组 8</title>
    <g id="LCdesign-Mobile组件库平台" stroke="none" stroke-width="1" fill="none" fill-rule="evenodd">
        <g id="首页-组件-刷新" transform="translate(-1363, -1015)">
            <g id="编组-41" transform="translate(1195, 247)">
                <g id="编组-5" transform="translate(0, 600)">
                    <g id="编组-8" transform="translate(168, 168)">
                        <rect id="矩形" x="0" y="0" width="40" height="40"></rect>
                        <path d="M11.149841,10.3511763 L7.01121714,12.7471015 C6.79859367,12.871347 6.66633183,13.0996903 6.66633183,13.3465025 L6.66633183,27.9873345 C6.66633183,28.2341467 6.79859367,28.46249 7.01121714,28.5867356 L14.4831743,32.9135044 C14.714214,33.046145 15.0005023,32.8799245 15.0005023,32.6146434 L15.0005023,25.6921491 C15.0005023,25.5679035 14.9352084,25.4537318 14.8280596,25.391609 L11.8396116,23.6622447 C11.7324627,23.6001219 11.6671689,23.4859503 11.6671689,23.3617047 L11.6671689,10.6500373 C11.6671689,10.3847562 11.3792064,10.2185357 11.149841,10.3511763 M19.6552821,5.42651753 L17.500586,6.67401044 L17.500586,34.6594908 L19.6552821,35.9069837 C19.8679056,36.0312293 20.1307551,36.0312293 20.3450527,35.9069837 L22.4997489,34.6594908 L22.4980747,13.0625845 C22.4980747,12.7956244 22.7860372,12.6294039 23.0154026,12.7620445 L28.160221,15.7422597 C28.2673698,15.8043825 28.3326637,15.9185542 28.3326637,16.0411208 L28.3326637,23.3615368 C28.3326637,23.4857824 28.2673698,23.599954 28.160221,23.6620768 L25.171773,25.3931201 C25.0646241,25.4535639 24.9993303,25.5677356 24.9993303,25.6919812 L24.9993303,32.6144755 C24.9993303,32.8797566 25.2856186,33.0459771 25.5149841,32.9133365 L32.9886154,28.5865677 C33.2012389,28.4623221 33.3335008,28.2356578 33.3335008,27.9888456 L33.3335008,13.3463346 C33.3335008,13.0995224 33.2012389,12.8711791 32.9886154,12.7469336 L20.3450527,5.42651753 C20.1307551,5.30227194 19.8679056,5.30227194 19.6552821,5.42651753" id="logo" fill="#000000"></path>
                    </g>
                </g>
            </g>
        </g>
    </g>
</svg>