<svg width="89" height="25" viewBox="0 0 89 25" fill="none" xmlns="http://www.w3.org/2000/svg">
<path d="M3.42579 22.1958L0 7.72937C1.1537 7.31897 2.15436 7.11377 3.00198 7.11377C3.87314 7.11377 4.49709 7.29617 4.87381 7.66097C5.25053 8.02577 5.5213 8.60716 5.68611 9.40515L6.78096 14.9113C7.29894 17.3965 7.60503 19.1749 7.69921 20.2465C7.72275 20.4517 7.81693 20.5543 7.98174 20.5543L9.92421 7.59257C10.7483 7.43297 11.8313 7.35317 13.1734 7.35317C14.5155 7.35317 15.5868 7.43297 16.3873 7.59257L18.3651 20.2465C18.3886 20.4517 18.4828 20.5543 18.6476 20.5543C19.0714 17.8411 19.3893 15.9601 19.6012 14.9113L21.1905 7.45577C21.7555 7.29617 22.5208 7.21637 23.4861 7.21637C24.6869 7.21637 25.5934 7.36457 26.2056 7.66097L26.3821 8.00297L22.25 24.4872C21.3788 24.624 20.2016 24.6924 18.7183 24.6924C17.2349 24.6924 16.2343 24.5328 15.7163 24.2136C15.1983 23.8944 14.8687 23.2446 14.7274 22.2643L14.1623 18.6049C13.8091 16.4845 13.503 14.3299 13.244 12.1411H13.0321C13.0086 12.3235 12.7025 14.4553 12.1139 18.5365L11.125 24.4872C9.99485 24.624 8.74695 24.6924 7.38135 24.6924C6.01574 24.6924 5.06805 24.5214 4.53829 24.1794C4.00853 23.8374 3.63769 23.1762 3.42579 22.1958Z" fill="black"/>
<path d="M35.6002 11.3543V24.487C35.2 24.5554 34.7644 24.6067 34.2935 24.6409C33.8226 24.6751 33.3399 24.6922 32.8455 24.6922C32.351 24.6922 31.8625 24.6751 31.3798 24.6409C30.8971 24.6067 30.4557 24.5554 30.0554 24.487V13.1669C30.0554 11.8445 29.5021 11.1833 28.3955 11.1833H27.8657C27.7245 10.7501 27.6538 10.1459 27.6538 9.37073C27.6538 8.61833 27.7245 7.97994 27.8657 7.45554C28.4779 7.40994 29.043 7.37004 29.5609 7.33584C30.0789 7.30164 30.5498 7.28454 30.9737 7.28454H31.7506C32.9514 7.28454 33.8932 7.64934 34.576 8.37893C35.2588 9.10853 35.6002 10.1003 35.6002 11.3543ZM29.4197 0.547195C30.1025 0.182398 30.9854 0 32.0685 0C33.1751 0 34.0345 0.182398 34.6467 0.547195C34.9292 1.16279 35.0705 1.82399 35.0705 2.53078C35.0705 3.23758 34.9292 3.89877 34.6467 4.51436C33.9639 4.85636 33.0692 5.02736 31.9625 5.02736C30.8559 5.02736 30.0083 4.85636 29.4197 4.51436C29.1371 3.89877 28.9959 3.23758 28.9959 2.53078C28.9959 1.82399 29.1371 1.16279 29.4197 0.547195Z" fill="black"/>
<path d="M39.6616 18.7075V11.6965C39.6616 10.2145 39.379 9.07453 38.814 8.27654C39.6851 7.52414 40.7447 7.14795 41.9926 7.14795C43.2404 7.14795 44.088 7.42154 44.5354 7.96874C44.9827 8.51594 45.2064 9.34813 45.2064 10.4653V17.7157C45.2064 18.5137 45.3006 19.095 45.489 19.4598C45.6773 19.8246 46.1718 20.007 46.9723 20.007C47.7493 20.007 48.538 19.6195 49.3386 18.8443V7.42154C50.1156 7.28475 51.022 7.21635 52.058 7.21635C53.094 7.21635 54.024 7.28475 54.8481 7.42154V19.5966C54.8481 20.8278 55.1777 21.66 55.837 22.0932C55.7193 22.5492 55.4956 23.0451 55.1659 23.5809C54.8363 24.1167 54.4949 24.51 54.1417 24.7608C52.2111 24.6924 50.8219 23.8944 49.9743 22.3668C48.1142 23.9856 46.3601 24.795 44.712 24.795C43.0638 24.795 41.8101 24.2421 40.9507 23.1363C40.0913 22.0305 39.6616 20.5542 39.6616 18.7075Z" fill="black"/>
<path d="M57.7441 23.3241C57.7677 22.7313 57.9266 22.0815 58.2209 21.3747C58.5152 20.6679 58.8625 20.1093 59.2628 19.6989C61.1464 20.6565 62.7828 21.1353 64.1719 21.1353C64.8312 21.1353 65.3374 21.027 65.6906 20.8104C66.0437 20.5938 66.2203 20.3031 66.2203 19.9383C66.2203 19.2543 65.6788 18.7413 64.5957 18.3993L62.6533 17.6811C59.7101 16.6323 58.2386 14.9223 58.2386 12.5512C58.2386 10.8184 58.8567 9.44468 60.0928 8.43009C61.3289 7.4155 62.9947 6.9082 65.0902 6.9082C66.1262 6.9082 67.2681 7.0507 68.516 7.3357C69.7639 7.6207 70.7881 7.95699 71.5886 8.34459C71.6357 8.98298 71.5062 9.68408 71.2001 10.4479C70.894 11.2117 70.5173 11.7532 70.0699 12.0724C68.0922 11.206 66.444 10.7728 65.1255 10.7728C64.6546 10.7728 64.2955 10.8754 64.0483 11.0806C63.8011 11.2858 63.6775 11.548 63.6775 11.8672C63.6775 12.4144 64.1248 12.8476 65.0195 13.1668L67.2092 13.9191C70.3407 14.9907 71.9064 16.8261 71.9064 19.4253C71.9064 21.1353 71.259 22.4919 69.964 23.4951C68.669 24.4983 66.8207 24.9999 64.4191 24.9999C62.0176 24.9999 59.7926 24.4413 57.7441 23.3241Z" fill="black"/>
<path d="M88.5407 17.6811H79.3228C79.3699 18.7071 79.6407 19.5051 80.1351 20.0751C80.6296 20.6451 81.4419 20.9301 82.572 20.9301C83.1371 20.9301 83.7905 20.8503 84.5322 20.6907C85.2738 20.5311 86.1273 20.2689 87.0927 19.9041C87.8697 20.6793 88.3523 21.7281 88.5407 23.0505C86.6571 24.3501 84.3497 24.9999 81.6185 24.9999C80.1351 24.9999 78.8931 24.7719 77.8925 24.3159C76.8918 23.8599 76.0795 23.2215 75.4556 22.4007C74.8316 21.5799 74.3902 20.6109 74.1312 19.4937C73.8722 18.3765 73.7427 17.1567 73.7427 15.8343C73.7427 14.5575 73.9016 13.3776 74.2195 12.2947C74.5373 11.2117 75.02 10.2712 75.6675 9.47318C76.315 8.67519 77.139 8.04819 78.1397 7.5922C79.1404 7.1362 80.3117 6.9082 81.6538 6.9082C82.7839 6.9082 83.8023 7.0906 84.7088 7.4554C85.6152 7.8202 86.3863 8.32179 87.0221 8.96019C87.6578 9.59858 88.1463 10.3624 88.4877 11.2516C88.8291 12.1408 88.9998 13.1098 88.9998 14.1585C88.9998 15.5493 88.8468 16.7235 88.5407 17.6811ZM79.2875 13.9875H83.9494V13.6113C83.9494 12.7678 83.7552 12.0724 83.3667 11.5252C82.9782 10.978 82.3955 10.7044 81.6185 10.7044C80.865 10.7044 80.3058 10.9609 79.9409 11.4739C79.5759 11.9869 79.3582 12.8248 79.2875 13.9875Z" fill="black"/>
</svg>
